<svg xmlns="http://www.w3.org/2000/svg" viewBox="0 0 32 32">
  <rect width="32" height="32" rx="6" fill="#0d1117"/>
  <!-- Blue snake (top-left) -->
  <path d="M8 3 L20 3 C24 3 25 4 25 8 L25 14 L16 14 L16 18 L8 18 C5 18 4 17 4 14 L4 8 C4 4 5 3 8 3 Z" fill="#3776AB"/>
  <!-- Yellow snake (bottom-right) -->
  <path d="M24 29 L12 29 C8 29 7 28 7 24 L7 18 L16 18 L16 14 L24 14 C27 14 28 15 28 18 L28 24 C28 28 27 29 24 29 Z" fill="#FFD43B"/>
  <!-- Eyes -->
  <circle cx="10" cy="7" r="1.5" fill="#FFD43B"/>
  <circle cx="22" cy="25" r="1.5" fill="#3776AB"/>
</svg>
